HIERARCHY
ROOT hip
{
  OFFSET 0 90.174 2.4664
  CHANNELS 6 Xposition Yposition Zposition Zrotation Xrotation Yrotation
  JOINT abdomen
  {
    OFFSET 0 -1.186 -1.5018
    CHANNELS 6 Xposition Yposition Zposition Zrotation Xrotation Yrotation
    JOINT abdomen2
    {
      OFFSET 0 9.964 0.2134
      CHANNELS 6 Xposition Yposition Zposition Zrotation Xrotation Yrotation
      JOINT chest
      {
        OFFSET 0 13.134 -3.2573
        CHANNELS 6 Xposition Yposition Zposition Zrotation Xrotation Yrotation
        JOINT neck
        {
          OFFSET 0 20.686 -1.6905
          CHANNELS 6 Xposition Yposition Zposition Zrotation Xrotation Yrotation
          JOINT head
          {
            OFFSET 0 7.238 -0.1237
            CHANNELS 6 Xposition Yposition Zposition Zrotation Xrotation Yrotation
            End Site
            {
              OFFSET 0 0 0
            }
          }
        }
        JOINT lCollar
        {
          OFFSET 1.7069 20.075 5.0056
          CHANNELS 6 Xposition Yposition Zposition Zrotation Xrotation Yrotation
          JOINT lShldr
          {
            OFFSET 13.6458 -0.047 -4.849
            CHANNELS 6 Xposition Yposition Zposition Zrotation Xrotation Yrotation
            JOINT lForeArm
            {
              OFFSET 28.3255 -0.9759 2.2888
              CHANNELS 6 Xposition Yposition Zposition Zrotation Xrotation Yrotation
              JOINT lHand
              {
                OFFSET 22.1583 -0.53 10.8316
                CHANNELS 6 Xposition Yposition Zposition Zrotation Xrotation Yrotation
                JOINT lThumb1
                {
                  OFFSET 0.786 0.112 2.5817
                  CHANNELS 6 Xposition Yposition Zposition Zrotation Xrotation Yrotation
                  JOINT lThumb2
                  {
                    OFFSET 0.3601 -0.878 4.2331
                    CHANNELS 6 Xposition Yposition Zposition Zrotation Xrotation Yrotation
                    JOINT lThumb2_End
                    {
                      OFFSET 1.8127 -1.216 2.2227
                      CHANNELS 6 Xposition Yposition Zposition Zrotation Xrotation Yrotation
                      End Site
                      {
                        OFFSET 0.0181 -0.0122 0.0222
                      }
                    }
                  }
                }
                JOINT lCarpal1
                {
                  OFFSET 0.9571 1.114 1.7695
                  CHANNELS 6 Xposition Yposition Zposition Zrotation Xrotation Yrotation
                  JOINT lIndex1
                  {
                    OFFSET 4.1246 0.487 4.1451
                    CHANNELS 6 Xposition Yposition Zposition Zrotation Xrotation Yrotation
                    JOINT lIndex2
                    {
                      OFFSET 3.4052 -1.454 2.7682
                      CHANNELS 6 Xposition Yposition Zposition Zrotation Xrotation Yrotation
                      JOINT lIndex2_End
                      {
                        OFFSET 1.4531 -1.795 1.2713
                        CHANNELS 6 Xposition Yposition Zposition Zrotation Xrotation Yrotation
                        End Site
                        {
                          OFFSET 0.0145 -0.0179 0.0127
                        }
                      }
                    }
                  }
                  JOINT lMid1
                  {
                    OFFSET 5.6954 0.21 2.1184
                    CHANNELS 6 Xposition Yposition Zposition Zrotation Xrotation Yrotation
                    JOINT lMid2
                    {
                      OFFSET 3.9766 -1.54 2.3863
                      CHANNELS 6 Xposition Yposition Zposition Zrotation Xrotation Yrotation
                      JOINT lMid2_End
                      {
                        OFFSET 1.4042 -1.926 1.125
                        CHANNELS 6 Xposition Yposition Zposition Zrotation Xrotation Yrotation
                        End Site
                        {
                          OFFSET 0.014 -0.0193 0.0113
                        }
                      }
                    }
                  }
                }
                JOINT lCarpal2
                {
                  OFFSET 2.0956 0.66 -0.3894
                  CHANNELS 6 Xposition Yposition Zposition Zrotation Xrotation Yrotation
                  JOINT lRing1
                  {
                    OFFSET 5.0395 -0.09 2.4971
                    CHANNELS 6 Xposition Yposition Zposition Zrotation Xrotation Yrotation
                    JOINT lRing2
                    {
                      OFFSET 3.7921 -1.552 1.4806
                      CHANNELS 6 Xposition Yposition Zposition Zrotation Xrotation Yrotation
                      JOINT lRing2_End
                      {
                        OFFSET 1.4655 -1.808 0.9609
                        CHANNELS 6 Xposition Yposition Zposition Zrotation Xrotation Yrotation
                        End Site
                        {
                          OFFSET 0.0147 -0.0181 0.0096
                        }
                      }
                    }
                  }
                  JOINT lPinky1
                  {
                    OFFSET 4.9141 -1.269 0.3591
                    CHANNELS 6 Xposition Yposition Zposition Zrotation Xrotation Yrotation
                    JOINT lPinky2
                    {
                      OFFSET 3.1477 -1.685 0.8462
                      CHANNELS 6 Xposition Yposition Zposition Zrotation Xrotation Yrotation
                      JOINT lPinky2_End
                      {
                        OFFSET 0.8055 -1.585 0.7955
                        CHANNELS 6 Xposition Yposition Zposition Zrotation Xrotation Yrotation
                        End Site
                        {
                          OFFSET 0.0081 -0.0158 0.008
                        }
                      }
                    }
                  }
                }
              }
            }
          }
        }
        JOINT rCollar
        {
          OFFSET -1.7069 20.075 5.0056
          CHANNELS 6 Xposition Yposition Zposition Zrotation Xrotation Yrotation
          JOINT rShldr
          {
            OFFSET -13.6458 -0.047 -4.849
            CHANNELS 6 Xposition Yposition Zposition Zrotation Xrotation Yrotation
            JOINT rForeArm
            {
              OFFSET -28.3255 -0.9759 2.2888
              CHANNELS 6 Xposition Yposition Zposition Zrotation Xrotation Yrotation
              JOINT rHand
              {
                OFFSET -22.1583 -0.53 10.8316
                CHANNELS 6 Xposition Yposition Zposition Zrotation Xrotation Yrotation
                JOINT rThumb1
                {
                  OFFSET -0.786 0.112 2.5817
                  CHANNELS 6 Xposition Yposition Zposition Zrotation Xrotation Yrotation
                  JOINT rThumb2
                  {
                    OFFSET -0.3601 -0.878 4.2331
                    CHANNELS 6 Xposition Yposition Zposition Zrotation Xrotation Yrotation
                    JOINT rThumb2_End
                    {
                      OFFSET -1.8127 -1.216 2.2227
                      CHANNELS 6 Xposition Yposition Zposition Zrotation Xrotation Yrotation
                      End Site
                      {
                        OFFSET -0.0181 -0.0122 0.0222
                      }
                    }
                  }
                }
                JOINT rCarpal1
                {
                  OFFSET -0.9571 1.114 1.7695
                  CHANNELS 6 Xposition Yposition Zposition Zrotation Xrotation Yrotation
                  JOINT rIndex1
                  {
                    OFFSET -4.1246 0.487 4.1451
                    CHANNELS 6 Xposition Yposition Zposition Zrotation Xrotation Yrotation
                    JOINT rIndex2
                    {
                      OFFSET -3.4052 -1.454 2.7682
                      CHANNELS 6 Xposition Yposition Zposition Zrotation Xrotation Yrotation
                      JOINT rIndex2_End
                      {
                        OFFSET -1.4531 -1.795 1.2713
                        CHANNELS 6 Xposition Yposition Zposition Zrotation Xrotation Yrotation
                        End Site
                        {
                          OFFSET -0.0145 -0.018 0.0127
                        }
                      }
                    }
                  }
                  JOINT rMid1
                  {
                    OFFSET -5.6954 0.21 2.1184
                    CHANNELS 6 Xposition Yposition Zposition Zrotation Xrotation Yrotation
                    JOINT rMid2
                    {
                      OFFSET -3.9766 -1.54 2.3863
                      CHANNELS 6 Xposition Yposition Zposition Zrotation Xrotation Yrotation
                      JOINT rMid2_End
                      {
                        OFFSET -1.4042 -1.926 1.125
                        CHANNELS 6 Xposition Yposition Zposition Zrotation Xrotation Yrotation
                        End Site
                        {
                          OFFSET -0.014 -0.0193 0.0113
                        }
                      }
                    }
                  }
                }
                JOINT rCarpal2
                {
                  OFFSET -2.0956 0.66 -0.3894
                  CHANNELS 6 Xposition Yposition Zposition Zrotation Xrotation Yrotation
                  JOINT rRing1
                  {
                    OFFSET -5.0395 -0.09 2.4971
                    CHANNELS 6 Xposition Yposition Zposition Zrotation Xrotation Yrotation
                    JOINT rRing2
                    {
                      OFFSET -3.7921 -1.552 1.4806
                      CHANNELS 6 Xposition Yposition Zposition Zrotation Xrotation Yrotation
                      JOINT rRing2_End
                      {
                        OFFSET -1.4655 -1.808 0.9609
                        CHANNELS 6 Xposition Yposition Zposition Zrotation Xrotation Yrotation
                        End Site
                        {
                          OFFSET -0.0147 -0.0181 0.0096
                        }
                      }
                    }
                  }
                  JOINT rPinky1
                  {
                    OFFSET -4.9141 -1.269 0.3592
                    CHANNELS 6 Xposition Yposition Zposition Zrotation Xrotation Yrotation
                    JOINT rPinky2
                    {
                      OFFSET -3.1477 -1.685 0.8462
                      CHANNELS 6 Xposition Yposition Zposition Zrotation Xrotation Yrotation
                      JOINT rPinky2_End
                      {
                        OFFSET -0.8055 -1.585 0.7955
                        CHANNELS 6 Xposition Yposition Zposition Zrotation Xrotation Yrotation
                        End Site
                        {
                          OFFSET -0.0081 -0.0158 0.008
                        }
                      }
                    }
                  }
                }
              }
            }
          }
        }
      }
    }
  }
  JOINT lThigh
  {
    OFFSET 8.367 -8.2066 0.5982
    CHANNELS 6 Xposition Yposition Zposition Zrotation Xrotation Yrotation
    JOINT lShin
    {
      OFFSET 2.1923 -43.463 -0.4932
      CHANNELS 6 Xposition Yposition Zposition Zrotation Xrotation Yrotation
      JOINT lFoot
      {
        OFFSET 0.7333 -45.8593 -2.6451
        CHANNELS 6 Xposition Yposition Zposition Zrotation Xrotation Yrotation
        End Site
        {
          OFFSET 2.6618 -4.2699 12.3931
        }
      }
    }
  }
  JOINT rThigh
  {
    OFFSET -8.367 -8.2066 0.5982
    CHANNELS 6 Xposition Yposition Zposition Zrotation Xrotation Yrotation
    JOINT rShin
    {
      OFFSET -2.1923 -43.463 -0.4931
      CHANNELS 6 Xposition Yposition Zposition Zrotation Xrotation Yrotation
      JOINT rFoot
      {
        OFFSET -0.7333 -45.8593 -2.6451
        CHANNELS 6 Xposition Yposition Zposition Zrotation Xrotation Yrotation
        End Site
        {
          OFFSET -2.6618 -4.2699 12.3931
        }
      }
    }
  }
}
MOTION
Frames:	4
Frame Time:	0.0333333
0 90.174 2.4664 0 0 -0 0 -1.186 -1.5018 0 0 -0 0 9.964 0.2134 0 0 -0 0 13.134 -3.2573 0 0 -0 0 20.686 -1.6905 0 0 -0 0 7.238 -0.1237 0 0 -0 1.7069 20.075 5.0056 0 0 -0 13.6458 -0.047 -4.849 1.66051 0.0835086 5.75766 28.3255 -0.9759 2.2888 -0.0175111 0.895433 15.7816 22.1583 -0.53 10.8316 7.95139e-016 -1.98785e-016 -0 0.786 0.112 2.5817 5.46658e-016 -3.97569e-016 -0 0.3601 -0.878 4.2331 5.96354e-016 0 -0 1.8127 -1.216 2.2227 3.97569e-016 1.98785e-016 9.54166e-015 0.9571 1.114 1.7695 1.49089e-016 -3.97569e-016 -0 4.1246 0.487 4.1451 6.4605e-016 0 3.18055e-015 3.4052 -1.454 2.7682 5.96354e-016 0 3.18055e-015 1.4531 -1.795 1.2713 8.94531e-016 -1.98785e-016 6.36111e-015 5.6954 0.21 2.1184 6.4605e-016 0 3.18055e-015 3.9766 -1.54 2.3863 5.96354e-016 0 3.18055e-015 1.4042 -1.926 1.125 8.94531e-016 -1.98785e-016 6.36111e-015 2.0956 0.66 -0.3894 1.49089e-016 -3.97569e-016 -0 5.0395 -0.09 2.4971 6.4605e-016 0 3.18055e-015 3.7921 -1.552 1.4806 5.96354e-016 0 3.18055e-015 1.4655 -1.808 0.9609 8.94531e-016 -1.98785e-016 6.36111e-015 4.9141 -1.269 0.3591 6.4605e-016 0 3.18055e-015 3.1477 -1.685 0.8462 5.96354e-016 0 3.18055e-015 0.8055 -1.585 0.7955 8.94531e-016 -1.98785e-016 6.36111e-015 -1.7069 20.075 5.0056 0 0 -0 -13.6458 -0.047 -4.849 -1.4496 0.0636048 -5.0245 -28.3255 -0.9759 2.2888 -1.74811 1.20616 -16.8394 -22.1583 -0.53 10.8316 -1.19271e-015 1.98785e-016 -3.18055e-015 -0.786 0.112 2.5817 -3.97569e-016 1.98785e-016 -3.18055e-015 -0.3601 -0.878 4.2331 -2.98177e-016 1.98785e-016 -3.18055e-015 -1.8127 -1.216 2.2227 -2.98177e-016 3.97569e-016 -0 -0.9571 1.114 1.7695 4.96962e-016 0 -6.36111e-015 -4.1246 0.487 4.1451 -9.93923e-017 3.97569e-016 -0 -3.4052 -1.454 2.7682 -8.94531e-016 5.96354e-016 -0 -1.4531 -1.795 1.2713 -3.97569e-016 3.97569e-016 -0 -5.6954 0.21 2.1184 -9.93923e-017 3.97569e-016 -0 -3.9766 -1.54 2.3863 -8.94531e-016 5.96354e-016 -0 -1.4042 -1.926 1.125 -3.97569e-016 3.97569e-016 -0 -2.0956 0.66 -0.3894 4.96962e-016 0 -6.36111e-015 -5.0395 -0.09 2.4971 -9.93923e-017 3.97569e-016 -0 -3.7921 -1.552 1.4806 -8.94531e-016 5.96354e-016 -0 -1.4655 -1.808 0.9609 -3.97569e-016 3.97569e-016 -0 -4.9141 -1.269 0.3592 -9.93923e-017 3.97569e-016 -0 -3.1477 -1.685 0.8462 -8.94531e-016 5.96354e-016 -0 -0.8055 -1.585 0.7955 -3.97569e-016 3.97569e-016 -0 8.367 -8.2066 0.5982 -4.66115 -1.03232 0.120763 2.1923 -43.463 -0.4932 0.00990601 1.55097 0.177175 0.7333 -45.8593 -2.6451 4.65196 -0.54114 -0.255042 -8.367 -8.2066 0.5982 4.66115 -1.03222 -0.120763 -2.1923 -43.463 -0.4931 -0.00990459 1.5509 -0.177176 -0.7333 -45.8593 -2.6451 -4.65196 -0.541171 0.255041 
0.0195229 51.787 -1.72065 -0 -13.644 -0 0 -1.186 -1.5018 1.05556 5.31287 2.80637 2.22045e-016 9.964 0.2134 1.85944 10.6705 5.54982 4.44089e-016 13.134 -3.2573 1.85944 10.6705 5.54982 -1.77636e-015 20.686 -1.6905 -0.0208394 -0.279517 0.251555 -8.88178e-016 7.238 -0.1237 -0.849015 -5.4713 9.8748 1.7069 20.075 5.0056 -9.5375e-007 -1.1358e-006 -1.88e-005 13.6458 -0.047 -4.849 3.83803 -11.0421 -20.1263 28.3255 -0.9759 2.2888 0.0727882 0.678708 8.43746 22.1583 -0.53 10.8316 -0.0016641 -0.00415381 0.000149166 0.786 0.112 2.5817 1.6027e-015 0 -1.98785e-016 0.3601 -0.878 4.2331 -2.48481e-017 0 -1.98785e-016 1.8127 -1.216 2.2227 -4.96962e-017 0 -0 0.9571 1.114 1.7695 1.6027e-015 -1.59028e-015 -1.98785e-016 4.1246 0.487 4.1451 -4.47266e-016 7.95139e-016 6.36111e-015 3.4052 -1.454 2.7682 -4.96962e-016 1.59028e-015 3.97569e-016 1.4531 -1.795 1.2713 -2.11209e-015 1.59028e-015 1.98785e-016 5.6954 0.21 2.1184 -4.47266e-016 7.95139e-016 6.36111e-015 3.9766 -1.54 2.3863 -4.96962e-016 1.59028e-015 3.97569e-016 1.4042 -1.926 1.125 -2.11209e-015 1.59028e-015 1.98785e-016 2.0956 0.66 -0.3894 1.6027e-015 -1.59028e-015 -1.98785e-016 5.0395 -0.09 2.4971 -4.47266e-016 7.95139e-016 6.36111e-015 3.7921 -1.552 1.4806 -4.96962e-016 1.59028e-015 3.97569e-016 1.4655 -1.808 0.9609 -2.11209e-015 1.59028e-015 1.98785e-016 4.9141 -1.269 0.3591 -4.47266e-016 7.95139e-016 6.36111e-015 3.1477 -1.685 0.8462 -4.96962e-016 1.59028e-015 3.97569e-016 0.8055 -1.585 0.7955 -2.11209e-015 1.59028e-015 1.98785e-016 -1.7069 20.075 5.0056 -1.54712e-006 -3.32911e-006 -5.1121e-006 -13.6458 -0.047 -4.849 -5.26783 -12.7629 15.0968 -28.3255 -0.9759 2.2888 0.349762 -5.62398 45.2711 -22.1583 -0.53 10.8316 -2.3869e-007 6.82216e-007 -1.07716e-005 -0.786 0.112 2.5817 -1.54487e-031 5.56597e-015 1.59028e-015 -0.3601 -0.878 4.2331 1.59028e-015 4.96962e-015 -0 -1.8127 -1.216 2.2227 -3.20008e-031 5.76476e-015 3.18055e-015 -0.9571 1.114 1.7695 -7.95139e-016 3.97569e-016 -0 -4.1246 0.487 4.1451 -0 -9.93923e-016 -0 -3.4052 -1.454 2.7682 7.95139e-016 4.77083e-015 3.18055e-015 -1.4531 -1.795 1.2713 -1.48969e-031 5.36719e-015 1.59028e-015 -5.6954 0.21 2.1184 -0 -9.93923e-016 -0 -3.9766 -1.54 2.3863 7.95139e-016 4.77083e-015 3.18055e-015 -1.4042 -1.926 1.125 -1.48969e-031 5.36719e-015 1.59028e-015 -2.0956 0.66 -0.3894 -7.95139e-016 3.97569e-016 -0 -5.0395 -0.09 2.4971 -0 -9.93923e-016 -0 -3.7921 -1.552 1.4806 7.95139e-016 4.77083e-015 3.18055e-015 -1.4655 -1.808 0.9609 -1.48969e-031 5.36719e-015 1.59028e-015 -4.9141 -1.269 0.3592 -0 -9.93923e-016 -0 -3.1477 -1.685 0.8462 7.95139e-016 4.77083e-015 3.18055e-015 -0.8055 -1.585 0.7955 -1.48969e-031 5.36719e-015 1.59028e-015 8.367 -8.2066 0.5982 -9.04917 -59.7265 -4.2981 2.1923 -43.463 -0.4932 0.308846 68.9919 1.697 0.7333 -45.8593 -2.6451 4.7783 1.87076 1.00264 -8.367 -8.2066 0.5982 -1.6549 -60.8847 -11.4504 -2.1923 -43.463 -0.4931 -0.318905 68.5326 -1.67143 -0.7333 -45.8593 -2.6451 -4.76746 2.26848 -0.981928 
0.176566 18.1082 -2.79754 -0 -25.0231 -0 0 -1.186 -1.5018 0.967607 9.48273 5.48899 0 9.964 0.2134 1.01736 19.0141 11.046 0 13.134 -3.2573 1.01736 19.0141 11.046 0 20.686 -1.6905 -0.0485465 -0.55745 0.501367 8.88178e-016 7.238 -0.1237 -0.121178 -9.67003 18.2733 1.7069 20.075 5.0056 1.83462e-007 1.66356e-007 -5.03732e-006 13.6458 -0.047 -4.849 -1.18905 -15.4158 -43.085 28.3255 -0.9759 2.2888 0.126388 0.490339 2.313 22.1583 -0.53 10.8316 -0.00307983 -0.00776426 0.000252244 0.786 0.112 2.5817 -2.11525e-007 -2.38424e-008 -1.56123e-008 0.3601 -0.878 4.2331 2.11525e-007 2.38424e-008 1.56123e-008 1.8127 -1.216 2.2227 -2.11525e-007 -2.38424e-008 -1.56123e-008 0.9571 1.114 1.7695 4.41391e-032 -1.59028e-015 1.59028e-015 4.1246 0.487 4.1451 -2.11525e-007 -2.38424e-008 -1.56123e-008 3.4052 -1.454 2.7682 2.11525e-007 2.38424e-008 1.56123e-008 1.4531 -1.795 1.2713 -2.11525e-007 -2.38424e-008 -1.56123e-008 5.6954 0.21 2.1184 -2.11525e-007 -2.38424e-008 -1.56123e-008 3.9766 -1.54 2.3863 2.11525e-007 2.38424e-008 1.56123e-008 1.4042 -1.926 1.125 -2.11525e-007 -2.38424e-008 -1.56123e-008 2.0956 0.66 -0.3894 4.41391e-032 -1.59028e-015 1.59028e-015 5.0395 -0.09 2.4971 -2.11525e-007 -2.38424e-008 -1.56123e-008 3.7921 -1.552 1.4806 2.11525e-007 2.38424e-008 1.56123e-008 1.4655 -1.808 0.9609 -2.11525e-007 -2.38424e-008 -1.56123e-008 4.9141 -1.269 0.3591 -2.11525e-007 -2.38424e-008 -1.56123e-008 3.1477 -1.685 0.8462 2.11525e-007 2.38424e-008 1.56123e-008 0.8055 -1.585 0.7955 -2.11525e-007 -2.38424e-008 -1.56123e-008 -1.7069 20.075 5.0056 -2.81045e-007 1.69171e-010 1.63418e-006 -13.6458 -0.047 -4.849 -1.74239 -19.9747 33.6494 -28.3255 -0.9759 2.2888 3.63529 2.41237 96.4645 -22.1583 -0.53 10.8316 -2.65234e-007 8.16095e-007 1.79529e-008 -0.786 0.112 2.5817 -3.69757e-007 7.96006e-007 2.56516e-008 -0.3601 -0.878 4.2331 -1.04523e-007 -2.00889e-008 7.69863e-009 -1.8127 -1.216 2.2227 -2.65234e-007 8.16095e-007 1.79529e-008 -0.9571 1.114 1.7695 -3.53113e-031 -3.18055e-015 -6.36111e-015 -4.1246 0.487 4.1451 -3.69757e-007 7.96006e-007 2.56516e-008 -3.4052 -1.454 2.7682 -1.04523e-007 -2.00889e-008 7.69864e-009 -1.4531 -1.795 1.2713 -2.65234e-007 8.16095e-007 1.79529e-008 -5.6954 0.21 2.1184 -3.69757e-007 7.96006e-007 2.56516e-008 -3.9766 -1.54 2.3863 -1.04523e-007 -2.00889e-008 7.69864e-009 -1.4042 -1.926 1.125 -2.65234e-007 8.16095e-007 1.79529e-008 -2.0956 0.66 -0.3894 -3.53113e-031 -3.18055e-015 -6.36111e-015 -5.0395 -0.09 2.4971 -3.69757e-007 7.96006e-007 2.56516e-008 -3.7921 -1.552 1.4806 -1.04523e-007 -2.00889e-008 7.69864e-009 -1.4655 -1.808 0.9609 -2.65234e-007 8.16095e-007 1.79529e-008 -4.9141 -1.269 0.3592 -3.69757e-007 7.96006e-007 2.56516e-008 -3.1477 -1.685 0.8462 -1.04523e-007 -2.00889e-008 7.69864e-009 -0.8055 -1.585 0.7955 -2.65234e-007 8.16095e-007 1.79529e-008 8.367 -8.2066 0.5982 -169.422 -68.0096 -159.926 2.1923 -43.463 -0.4932 179.403 54.1887 -173.696 0.7333 -45.8593 -2.6451 5.28881 5.5682 3.40926 -8.367 -8.2066 0.5982 -152.056 -64.9181 -164.068 -2.1923 -43.463 -0.4931 -179.34 54.9037 173.728 -0.7333 -45.8593 -2.6451 -5.23696 6.10652 -3.34047 
0.19524 9.7346 -2.62811 -0 -27.8736 -0 0 -1.186 -1.5018 0.793328 10.4772 6.2059 0 9.964 0.2134 0.417629 20.9778 12.5868 0 13.134 -3.2573 0.417627 20.9778 12.5868 -8.88178e-016 20.686 -1.6905 -0.108169 -0.827803 0.744532 -8.88178e-016 7.238 -0.1237 0.246343 -10.5948 20.3132 1.7069 20.075 5.0056 4.5931e-006 1.04917e-005 7.34175e-005 13.6458 -0.047 -4.849 -3.04193 -15.3961 -48.8855 28.3255 -0.9759 2.2888 0.136636 0.442335 0.778824 22.1583 -0.53 10.8316 -0.00357296 -0.00934344 0.000144406 0.786 0.112 2.5817 -3.97569e-016 1.59028e-015 -3.18055e-015 0.3601 -0.878 4.2331 -7.95139e-016 -3.18055e-015 -0 1.8127 -1.216 2.2227 -3.97569e-016 -3.18055e-015 -0 0.9571 1.114 1.7695 -3.97569e-016 0 -3.18055e-015 4.1246 0.487 4.1451 1.76556e-031 -3.18055e-015 3.18055e-015 3.4052 -1.454 2.7682 -0 -3.18055e-015 -0 1.4531 -1.795 1.2713 -0 -3.18055e-015 -0 5.6954 0.21 2.1184 1.76556e-031 -3.18055e-015 3.18055e-015 3.9766 -1.54 2.3863 -0 -3.18055e-015 -0 1.4042 -1.926 1.125 -0 -3.18055e-015 -0 2.0956 0.66 -0.3894 -3.97569e-016 0 -3.18055e-015 5.0395 -0.09 2.4971 1.76556e-031 -3.18055e-015 3.18055e-015 3.7921 -1.552 1.4806 -0 -3.18055e-015 -0 1.4655 -1.808 0.9609 -0 -3.18055e-015 -0 4.9141 -1.269 0.3591 1.76556e-031 -3.18055e-015 3.18055e-015 3.1477 -1.685 0.8462 -0 -3.18055e-015 -0 0.8055 -1.585 0.7955 -0 -3.18055e-015 -0 -1.7069 20.075 5.0056 3.11708e-006 1.17784e-005 -5.21707e-006 -13.6458 -0.047 -4.849 -0.0728421 -20.9359 38.5411 -28.3255 -0.9759 2.2888 2.64697 6.0027 109.001 -22.1583 -0.53 10.8316 5.93881e-007 -1.46485e-008 -1.76635e-006 -0.786 0.112 2.5817 2.12582e-007 2.50285e-009 -1.87694e-008 -0.3601 -0.878 4.2331 -1.50155e-007 -2.34084e-008 -1.70065e-006 -1.8127 -1.216 2.2227 -2.48481e-016 0 -0 -0.9571 1.114 1.7695 -1.2424e-016 0 1.98785e-016 -4.1246 0.487 4.1451 2.12582e-007 2.50285e-009 -1.87694e-008 -3.4052 -1.454 2.7682 -1.50155e-007 -2.34084e-008 -1.70065e-006 -1.4531 -1.795 1.2713 -3.97569e-016 0 -1.98785e-016 -5.6954 0.21 2.1184 2.12582e-007 2.50285e-009 -1.87694e-008 -3.9766 -1.54 2.3863 -1.50155e-007 -2.34084e-008 -1.70065e-006 -1.4042 -1.926 1.125 -3.97569e-016 0 -1.98785e-016 -2.0956 0.66 -0.3894 -1.2424e-016 0 1.98785e-016 -5.0395 -0.09 2.4971 2.12582e-007 2.50285e-009 -1.87694e-008 -3.7921 -1.552 1.4806 -1.50155e-007 -2.34084e-008 -1.70065e-006 -1.4655 -1.808 0.9609 -3.97569e-016 0 -1.98785e-016 -4.9141 -1.269 0.3592 2.12582e-007 2.50285e-009 -1.87694e-008 -3.1477 -1.685 0.8462 -1.50155e-007 -2.34084e-008 -1.70065e-006 -0.8055 -1.585 0.7955 -3.97569e-016 0 -1.98785e-016 8.367 -8.2066 0.5982 -174.644 -53.8023 -161.041 2.1923 -43.463 -0.4932 179.331 39.9364 -171.214 0.7333 -45.8593 -2.6451 5.70932 7.92825 4.97019 -8.367 -8.2066 0.5982 -158.649 -50.8134 -172.777 -2.1923 -43.463 -0.4931 -179.253 40.6862 171.31 -0.7333 -45.8593 -2.6451 -5.62151 8.40504 -4.86438 
